Coordinates
version=1
nRows=19
nColumns=34
inDegrees=yes

Units are S.I. units (second, meters, Newtons, ...)
If the header above contains a line with 'inDegrees', this indicates whether rotational values are in degrees (yes) or radians (no).

endheader
time	pelvis_tilt	pelvis_list	pelvis_rotation	pelvis_tx	pelvis_ty	pelvis_tz	hip_flexion_r	hip_adduction_r	hip_rotation_r	knee_angle_r	ankle_angle_r	subtalar_angle_r	mtp_angle_r	hip_flexion_l	hip_adduction_l	hip_rotation_l	knee_angle_l	ankle_angle_l	subtalar_angle_l	mtp_angle_l	lumbar_extension	lumbar_bending	lumbar_rotation	arm_flex_r	arm_add_r	arm_rot_r	elbow_flex_r	pro_sup_r	arm_flex_l	arm_add_l	arm_rot_l	elbow_flex_l	pro_sup_l
      0.00000000	     -2.84816830	     -1.23819854	     -5.88965797	      1.70446029	      0.87222877	     -0.03813513	      1.49586563	     -2.69044613	     -3.58526584	      6.29983341	      0.99546018	    -17.86954014	      0.00000000	      1.57330831	     -4.61791762	     -1.50708855	      6.34199122	      6.78684203	     -9.82276036	      0.00000000	     -6.26385616	      2.66321437	     -2.89479420	     13.18712160	     -5.97555429	     38.82620829	     79.87166795	     95.76563411	      5.98985006	     -5.13132004	     26.01084989	     77.26566207	     92.84678687
      0.01666670	     -4.58642070	     -0.80037428	     -5.74677932	      1.70597580	      0.87082741	     -0.03882855	      3.83072805	     -2.71857603	     -2.21877816	      6.96054776	      4.67052716	    -16.65607920	      0.00000000	      4.53681953	     -3.97072756	     -0.82603439	      6.99128698	      7.35275722	     -9.15384705	      0.00000000	     -3.39124539	      2.83415669	     -2.69079291	     11.56151912	     -5.66993009	     36.11259493	     78.83581934	     95.07615722	      5.30139516	     -5.24121798	     25.80525443	     76.34493024	     92.09324971
      0.03333330	     -4.46839538	      0.05809930	     -5.85873544	      1.70558173	      0.87104422	     -0.03821107	      3.48519886	     -3.71814821	     -2.29386731	      6.17516214	      5.00724827	    -16.29085565	      0.00000000	      4.33240649	     -3.15742261	     -0.90580882	      6.53157971	      6.84268907	     -9.33150492	      0.00000000	     -3.22835871	      1.77888014	     -2.04878246	     11.31228583	     -5.37462239	     35.24346703	     77.91145707	     94.85596908	      6.06873562	     -5.59265435	     25.66520868	     75.13358969	     91.44172610
      0.05000000	     -3.85309287	      0.50640964	     -5.77854319	      1.70505367	      0.87281135	     -0.03807838	      2.51798874	     -4.31586298	     -2.04490354	      5.53311239	      5.14715452	    -16.35331873	      0.00000000	      3.27005513	     -2.55323076	     -0.16791699	      5.83456663	      6.15834277	    -10.39959996	      0.00000000	     -3.81906886	      1.07600437	     -1.48882307	     11.08601896	     -5.44819606	     34.94116942	     77.58997571	     94.76536611	      6.88480860	     -5.85310754	     26.03257218	     74.23489987	     90.94139341
      0.06666670	     -3.48478317	      0.73403310	     -5.74866734	      1.70506591	      0.87381675	     -0.03805570	      1.86422923	     -4.52502393	     -1.86681042	      5.01926721	      5.16327599	    -16.75967880	      0.00000000	      2.52996212	     -2.22451600	      0.52645482	      5.21888600	      5.76211267	    -11.10573219	      0.00000000	     -4.18478406	      0.74250288	     -1.15032427	     11.03097056	     -5.60177176	     35.15733038	     77.98979098	     94.73789851	      7.33430407	     -6.03480653	     26.77910116	     73.90229492	     90.75046038
      0.08333330	     -3.47727541	      0.81360957	     -5.75128133	      1.70520363	      0.87398139	     -0.03795921	      1.72837818	     -4.50875554	     -1.64851200	      4.71535595	      5.30959522	    -16.78936822	      0.00000000	      2.51093519	     -2.12767128	      0.77819703	      5.23338000	      5.73852728	    -11.10105572	      0.00000000	     -4.11130891	      0.60875174	     -1.08374382	     11.16452185	     -5.49962188	     35.19479589	     78.11010690	     94.73472646	      7.46383179	     -5.98254734	     26.85480063	     73.92970354	     90.74535794
      0.10000000	     -3.38685540	      0.91694019	     -5.68368896	      1.70562328	      0.87325449	     -0.03782193	      1.42029017	     -4.56626703	     -1.38119855	      4.34552560	      5.52520774	    -16.95262545	      0.00000000	      2.38930393	     -1.98286583	      1.20149162	      5.23425299	      5.70909794	    -11.16544199	      0.00000000	     -4.07969635	      0.48800629	     -1.01362162	     11.19888947	     -5.45216158	     35.36686480	     78.32336359	     94.73223855	      7.55275776	     -5.94314796	     27.07508369	     73.94760878	     90.75178657
      0.11666670	     -2.59509584	      0.85106336	     -5.49691704	      1.70560983	      0.87334745	     -0.03771128	      0.25754632	     -4.50235278	     -1.06912113	      3.87297702	      4.91260649	    -18.16760177	      0.00000000	      1.40154268	     -1.92177447	      2.31937265	      4.99574324	      5.14186066	    -12.71620642	      0.00000000	     -5.20647536	      0.43903062	     -0.94200751	     11.46126158	     -6.13065334	     36.35331240	     79.76056409	     94.64805040	      8.39050966	     -6.33727089	     28.76184438	     73.94954766	     90.81056400
      0.13333330	     -2.59096551	      0.85472889	     -5.57636492	      1.70576895	      0.87300633	     -0.03701983	      0.22861111	     -4.46819588	     -0.99222678	      3.78768562	      4.94360486	    -18.19172947	      0.00000000	      1.38793349	     -1.95472265	      2.42915499	      5.07726932	      5.04513541	    -12.67543490	      0.00000000	     -5.16155867	      0.39784301	     -0.90813464	     11.48134616	     -6.13926864	     36.34800825	     79.79282968	     94.64027115	      8.44782397	     -6.36539129	     28.76533296	     73.96476542	     90.80732570
      0.15000000	     -2.35882272	      0.81240421	     -5.45390697	      1.70605506	      0.87408040	     -0.03656597	     -0.29722442	     -4.37428114	     -0.35552101	      3.33085748	      4.29377192	    -19.41993886	      0.00000000	      1.03503419	     -1.99730603	      3.24073945	      4.93216512	      4.19027404	    -13.83843827	      0.00000000	     -5.49490137	      0.38234099	     -0.61845998	     11.24036195	     -6.54477420	     36.40625076	     80.84814949	     94.36882143	      8.86070135	     -6.58423739	     29.59215862	     73.86273619	     90.70357558
      0.16666670	     -2.36695066	      0.83015458	     -5.45441379	      1.70622304	      0.87519471	     -0.03635230	     -0.28767039	     -4.36953032	     -0.35325202	      3.32284367	      4.29447079	    -19.42142795	      0.00000000	      1.01671387	     -2.01639589	      3.24630055	      4.94609374	      4.18517663	    -13.83635615	      0.00000000	     -5.49305767	      0.37800656	     -0.62004826	     11.23748683	     -6.54827627	     36.40496265	     80.84825419	     94.36806183	      8.86343260	     -6.58778984	     29.59073906	     73.86162315	     90.70298061
      0.18333330	     -2.33735820	      0.75757419	     -5.40204753	      1.70660651	      0.87644656	     -0.03643208	     -0.51496917	     -4.24183548	     -0.19325680	      2.98670184	      4.22336544	    -19.56912845	      0.00000000	      0.92444410	     -2.12866075	      3.47399502	      4.91621113	      3.85926575	    -13.80326990	      0.00000000	     -5.42353100	      0.36857505	     -0.62849157	     10.92628864	     -6.68553883	     36.38548146	     80.90360323	     94.30475590	      8.91468304	     -6.82213378	     29.51721692	     73.71608412	     90.64979649
      0.20000000	     -2.34086910	      0.71215606	     -5.36933992	      1.70681291	      0.87725894	     -0.03678611	     -0.53739856	     -4.17820224	     -0.19494155	      2.92237088	      4.13933949	    -19.60729174	      0.00000000	      0.87465163	     -2.18115942	      3.52558384	      4.84655250	      3.79870715	    -13.82596330	      0.00000000	     -5.50128606	      0.32331712	     -0.59295221	     10.79879481	     -6.70955993	     36.40980800	     80.91322663	     94.28648750	      8.84078069	     -6.91870112	     29.50952807	     73.63483813	     90.63296368
      0.21666670	     -2.33687061	      0.69727145	     -5.36305057	      1.70694967	      0.87738405	     -0.03705020	     -0.52536504	     -4.17311826	     -0.19450586	      2.91037994	      4.13530848	    -19.60928443	      0.00000000	      0.85854173	     -2.16509573	      3.52680332	      4.84784937	      3.79417974	    -13.82632036	      0.00000000	     -5.50007767	      0.32635440	     -0.59320952	     10.79024841	     -6.71045887	     36.41225473	     80.91405024	     94.28565584	      8.84260387	     -6.92328554	     29.50773389	     73.63273103	     90.63207305
      0.23333330	     -2.32082853	      0.66291697	     -5.32653026	      1.70737227	      0.87702239	     -0.03701401	     -0.67392788	     -4.13934892	     -0.21090313	      2.67923753	      3.96166355	    -19.69025135	      0.00000000	      0.69394035	     -2.18000824	      3.62330378	      4.59877414	      3.61950193	    -13.82285809	      0.00000000	     -5.49734846	      0.48563922	     -0.60630408	     10.39834076	     -6.80009466	     36.54015001	     80.93284412	     94.25721208	      8.89261733	     -7.13525831	     29.42859028	     73.53518501	     90.59847921
      0.25000000	     -2.27404965	      0.58532128	     -5.26178082	      1.70755301	      0.87633653	     -0.03707438	     -0.84177044	     -4.03153514	     -0.23260818	      2.48549209	      3.81128079	    -19.78876855	      0.00000000	      0.52841444	     -2.26304875	      3.73427203	      4.41110213	      3.46823988	    -13.81839979	      0.00000000	     -5.37946793	      0.36695452	     -0.54866130	     10.47020326	     -6.81653437	     36.55891197	     81.06933608	     94.22232726	      8.82940583	     -7.07294279	     29.46691405	     73.47699559	     90.56862813
      0.26666670	     -1.72741615	      0.53888303	     -5.25427431	      1.70743945	      0.87588248	     -0.03777663	     -1.73582712	     -4.03713034	      0.18563191	      1.88174092	      2.69378632	    -20.98981918	      0.00000000	     -0.31660988	     -2.20156501	      4.16668076	      3.94057771	      2.78921876	    -14.53254855	      0.00000000	     -6.12257723	      0.51139265	     -0.38180179	     10.44531062	     -7.29296332	     36.91452361	     81.94849728	     93.71735100	      9.25901493	     -6.95473068	     29.61374889	     72.97568586	     90.13053649
      0.28333330	     -1.72584641	      0.53239395	     -5.25451306	      1.70724656	      0.87494573	     -0.03797525	     -1.72965535	     -4.02234834	      0.18431264	      1.87592035	      2.69735088	    -20.99446464	      0.00000000	     -0.31905944	     -2.18379676	      4.17077161	      3.93676561	      2.78982749	    -14.53093978	      0.00000000	     -6.12242700	      0.51181136	     -0.37760956	     10.44759564	     -7.29589637	     36.91363367	     81.94816798	     93.71574770	      9.25802714	     -6.95532509	     29.61452746	     72.97705454	     90.12927265
      0.30000000	     -1.78914308	      0.53172946	     -5.26844981	      1.70741671	      0.87447962	     -0.03759221	     -1.69470042	     -3.99128725	      0.14620605	      1.79501126	      2.78161692	    -21.11414165	      0.00000000	     -0.30950369	     -2.18780794	      4.30237436	      3.82729364	      2.80384624	    -14.48920569	      0.00000000	     -6.09409039	      0.53742303	     -0.26354543	     10.55815539	     -7.42205894	     36.87518533	     81.95366886	     93.68405124	      9.25628139	     -6.98892279	     29.60844853	     73.01079089	     90.10342758
